<?xml version="1.0" standalone="no"?>
<!DOCTYPE svg PUBLIC "-//W3C//DTD SVG 20010904//EN"
 "http://www.w3.org/TR/2001/REC-SVG-20010904/DTD/svg10.dtd">
<svg version="1.0" xmlns="http://www.w3.org/2000/svg"
 width="488.000000pt" height="488.000000pt" viewBox="0 0 488.000000 488.000000"
 preserveAspectRatio="xMidYMid meet">
<metadata>
Created by potrace 1.11, written by Peter Selinger 2001-2013
</metadata>
<g transform="translate(0.000000,488.000000) scale(0.100000,-0.100000)"
fill="#000000" stroke="none">
<path d="M2235 4873 c-400 -33 -824 -183 -1160 -411 -536 -365 -902 -915
-1029 -1552 -15 -75 -19 -102 -35 -235 -8 -69 -6 -442 3 -500 3 -16 8 -50 11
-75 4 -25 9 -61 12 -80 2 -19 16 -81 29 -138 90 -378 258 -711 507 -1007 292
-348 671 -605 1097 -745 106 -35 178 -55 255 -70 33 -7 65 -13 70 -15 6 -1 33
-5 60 -9 28 -4 61 -10 75 -12 145 -23 483 -23 620 0 14 3 41 7 60 10 57 9 93
16 120 22 14 3 36 8 50 10 201 37 528 171 746 307 77 48 244 168 281 201 6 6
53 49 104 96 76 70 164 167 267 295 73 91 189 280 259 426 81 166 173 444 197
594 2 17 8 50 12 75 12 72 13 80 21 185 25 345 -12 650 -119 970 -200 604
-645 1119 -1211 1402 -246 123 -536 211 -812 248 -54 7 -425 13 -490 8z"/>
</g>
</svg>
